<?xml version="1.0" encoding="UTF-8" standalone="no"?>
<!-- Created with Inkscape (http://www.inkscape.org/) -->

<svg
   width="200mm"
   height="200mm"
   viewBox="0 0 200 200"
   version="1.1"
   id="svg1"
   inkscape:version="1.4.4 (dcaf3e7d9e, 2026-05-05)"
   sodipodi:docname="nixieflow_favicon.svg"
   xmlns:inkscape="http://www.inkscape.org/namespaces/inkscape"
   xmlns:sodipodi="http://sodipodi.sourceforge.net/DTD/sodipodi-0.dtd"
   xmlns="http://www.w3.org/2000/svg"
   xmlns:svg="http://www.w3.org/2000/svg">
  <sodipodi:namedview
     id="namedview1"
     pagecolor="#000000"
     bordercolor="#000000"
     borderopacity="0.25"
     inkscape:showpageshadow="2"
     inkscape:pageopacity="0.0"
     inkscape:pagecheckerboard="0"
     inkscape:deskcolor="#d1d1d1"
     inkscape:document-units="mm"
     inkscape:zoom="0.5028865"
     inkscape:cx="332.08288"
     inkscape:cy="694.98783"
     inkscape:window-width="1874"
     inkscape:window-height="1011"
     inkscape:window-x="0"
     inkscape:window-y="0"
     inkscape:window-maximized="1"
     inkscape:current-layer="g3" />
  <defs
     id="defs1" />
  <g
     inkscape:label="Layer 1"
     inkscape:groupmode="layer"
     id="layer1">
    <g
       id="g3"
       transform="matrix(1.0709336,0,0,1.0709336,-8.4572197,21.39241)"
       style="stroke:none">
      <path
         id="path9-1"
         style="fill:#f9f9f9;fill-opacity:1;stroke:none;stroke-width:7.09949;stroke-linejoin:miter;stroke-dasharray:none;stroke-opacity:1;paint-order:stroke fill markers"
         d="m 59.424691,7.3080893 c -0.984239,0.00972 -1.977474,0.2502609 -2.872539,0.638878 -4.36189,1.5913131 -8.474289,3.7784257 -12.630387,5.8324157 -10.798762,5.537909 -21.33695,11.560588 -31.81024,17.689298 -0.872434,3.788702 -1.748632,7.576491 -2.6211369,11.365177 7.1921799,-3.146794 14.2447149,-6.639743 21.6161779,-9.358791 1.314965,-0.418019 2.881048,-0.933497 4.164771,-0.178056 1.260842,1.165547 0.79757,3.035698 0.663005,4.539219 -0.707007,6.160835 -2.117539,12.200513 -3.450617,18.267859 -2.894328,12.741979 -6.186783,25.393485 -9.806585,37.948101 -2.947044,9.74328 -6.013772,19.45129 -8.830414,29.23253 -1.447166,5.3985 -2.790623,10.82316 -4.1652535,16.24072 8.4974845,-3.28558 16.9951335,-6.57109 25.4923925,-9.85725 6.456123,-24.66934 12.912668,-49.338753 19.369006,-74.008035 10.063332,-6.420224 20.201983,-12.798864 30.484713,-18.811194 2.626567,-1.471321 5.279947,-3.025309 8.216627,-3.780672 0.914081,-0.18564 2.306305,-0.419707 2.71668,0.689544 0.503782,1.527389 0.0658,3.165975 -0.07238,4.722583 -0.868436,5.811996 -2.381651,11.50103 -3.685612,17.224615 -3.877607,16.42446 -8.108622,32.78652 -11.993922,49.217249 -1.071595,4.8398 -2.245283,9.71181 -2.385177,14.68841 -0.07223,3.45842 0.685199,6.91569 2.202778,10.02517 0.836644,1.85111 1.856123,3.61117 2.852272,5.3798 7.02566,-0.0397 13.679926,-2.91487 19.580361,-6.52486 11.2245,-6.85271 17.91487,-15.15631 28.50149,-22.87752 2.47487,-1.75707 4.56819,-4.08203 7.96281,-5.1588 -0.0278,-0.0264 -0.0558,-0.0528 -0.0835,-0.0791 3.52875,-1.414625 7.14871,-0.598016 10.77166,-0.042 5.26947,0.78418 14.88252,5.11951 24.27978,2.98063 9.39725,-2.13892 19.87615,-12.45812 19.87615,-12.45812 -2.64237,-0.220442 -5.60504,0.119116 -11.2209,-2.982075 -5.61586,-3.10117 -15.15359,-10.739492 -21.81305,-11.015821 -6.65941,-0.27634 -8.57622,0.926903 -12.59758,3.08003 1.72058,-4.459354 3.93279,-10.443518 2.93913,-15.765426 -0.9937,-5.321907 -9.67975,-16.769218 -11.28701,-21.226289 -1.60729,-4.45705 -1.36905,-7.01492 -1.31008,-9.200519 0,0 -13.43839,10.918408 -14.27825,24.216083 -0.42256,6.690671 1.84423,13.564861 2.72585,18.596949 0.97546,3.642289 0.68942,7.199314 -0.22438,10.782273 -2.45137,5.058693 -5.67695,9.231589 -10.26982,12.553664 -2.30541,1.593861 -4.98477,3.082911 -7.87692,2.921761 -1.64106,-0.33923 -2.31947,-2.12732 -2.80499,-3.536994 -0.85043,-2.880577 -0.62535,-5.931729 -0.55347,-8.895074 0.32647,-4.527003 1.60239,-8.857175 2.6443,-13.248999 4.89041,-18.804108 10.25922,-37.483675 15.4069,-56.215478 0.68862,-2.865759 1.93721,-5.805733 1.31347,-8.798566 -0.41384,-2.031758 -1.95621,-3.7578471 -3.94474,-4.3630934 -1.43013,-0.5181836 -2.9718,-0.5208497 -4.47166,-0.4477937 -4.64314,0.088407 -8.75668,2.5412933 -12.68588,4.7525001 C 94.261543,17.274623 85.32318,22.920786 76.292229,28.412296 70.418991,32.077703 64.53379,35.721987 58.691236,39.433425 60.943002,30.905977 63.040808,22.3284 64.607613,13.646686 64.888419,11.54982 64.19283,9.1335469 62.241255,8.0540904 61.383755,7.5197727 60.408929,7.2983662 59.424691,7.3080893 Z"
         sodipodi:nodetypes="sccccccccccccccccccccccccccsscssccccsccccccccccccccccs" />
    </g>
  </g>
</svg>
