<?xml version="1.0" encoding="UTF-8" standalone="no"?>
<!-- Created with Inkscape (http://www.inkscape.org/) -->

<svg
   width="200mm"
   height="200mm"
   viewBox="0 0 200 200"
   version="1.1"
   id="svg1"
   xml:space="preserve"
   inkscape:version="1.4.4 (dcaf3e7d9e, 2026-05-05)"
   sodipodi:docname="aquata_logo.svg"
   xmlns:inkscape="http://www.inkscape.org/namespaces/inkscape"
   xmlns:sodipodi="http://sodipodi.sourceforge.net/DTD/sodipodi-0.dtd"
   xmlns:xlink="http://www.w3.org/1999/xlink"
   xmlns="http://www.w3.org/2000/svg"
   xmlns:svg="http://www.w3.org/2000/svg"><sodipodi:namedview
     id="namedview1"
     pagecolor="#ffffff"
     bordercolor="#000000"
     borderopacity="0.25"
     inkscape:showpageshadow="2"
     inkscape:pageopacity="0.0"
     inkscape:pagecheckerboard="0"
     inkscape:deskcolor="#d1d1d1"
     inkscape:document-units="mm"
     inkscape:zoom="0.71118891"
     inkscape:cx="522.36473"
     inkscape:cy="248.17597"
     inkscape:window-width="2560"
     inkscape:window-height="1379"
     inkscape:window-x="0"
     inkscape:window-y="240"
     inkscape:window-maximized="1"
     inkscape:current-layer="g9" /><defs
     id="defs1"><rect
       x="-108.2694"
       y="873.18573"
       width="1094.078"
       height="357.2998"
       id="rect9" /></defs><g
     inkscape:label="Layer 1"
     inkscape:groupmode="layer"
     id="layer1"><g
       id="g9"
       transform="matrix(1.0777727,0,0,1.0777727,-15.562256,-6.7374566)"><path
         id="path9"
         style="fill:#0f7388;fill-opacity:1;stroke:#51b8c9;stroke-width:4;stroke-linejoin:miter;stroke-dasharray:none;stroke-opacity:1;paint-order:stroke fill markers"
         d="m 159.00976,107.84954 c 1.60735,-0.35932 1.96348,-0.14935 4.93242,0.29249 2.96893,0.44183 8.38505,2.88445 13.67965,1.67936 5.2946,-1.2051 11.19871,-7.01923 11.19871,-7.01923 -1.48878,-0.1242 -3.15799,0.0673 -6.32207,-1.67997 -3.16409,-1.747261 -8.53793,-6.050808 -12.29,-6.206503 -3.75205,-0.155695 -4.83219,0.522029 -7.09791,1.73513 0.96941,-2.512487 2.21597,-5.883847 1.65612,-8.882316 -0.55987,-2.99847 -5.45368,-9.448181 -6.35925,-11.959387 -0.90558,-2.511197 -0.77158,-3.952297 -0.73836,-5.183702 0,0 -7.57131,6.151532 -8.04451,13.6437 -0.23808,3.769658 1.03917,7.642834 1.5359,10.47802 0.49053,2.799731 0.45754,3.077243 0.19924,4.585082 -0.98624,5.757156 -6.54432,16.255136 -6.54432,16.255136 0,0 8.93537,-6.56216 14.19438,-7.73781 z"
         sodipodi:nodetypes="asscsscsscssaca" /><path
         id="path1"
         style="fill:#0f7388;fill-opacity:1;stroke:none;stroke-width:0.407185;stroke-linejoin:round;paint-order:stroke fill markers"
         d="M 71.244085,16.253557 A 50.124906,53.674042 0 0 0 21.119269,69.927643 50.124906,53.674042 0 0 0 71.244085,123.60173 50.124906,53.674042 0 0 0 105.79487,108.81346 c 5.69743,7.90384 13.19144,15.13996 28.49052,14.99184 17.27949,-0.1673 24.72437,-15.95576 24.72437,-15.95576 0,0 1.96348,-0.14935 4.93242,0.29249 2.96893,0.44183 8.38505,2.88445 13.67965,1.67936 5.2946,-1.2051 11.19871,-7.01923 11.19871,-7.01923 -1.48878,-0.1242 -3.15799,0.0673 -6.32207,-1.67997 -3.16409,-1.747261 -8.53793,-6.050808 -12.29,-6.206503 -3.75205,-0.155695 -4.83219,0.522029 -7.09791,1.73513 0.96941,-2.512487 2.21597,-5.883847 1.65612,-8.882316 -0.55987,-2.99847 -5.45368,-9.448181 -6.35925,-11.959387 -0.90558,-2.511197 -0.77158,-3.952297 -0.73836,-5.183702 0,0 -7.57131,6.151532 -8.04451,13.6437 -0.23808,3.769658 1.03917,7.642834 1.5359,10.47802 0.49053,2.799731 0.19924,4.585082 0.19924,4.585082 0,0 -1.95243,4.198136 -9.89736,4.337516 -7.94069,0.13931 -10.92132,-7.602136 -10.92452,-11.429241 v -0.0062 -73.298097 H 103.77034 V 29.088517 A 50.124906,53.674042 0 0 0 71.244085,16.253557 Z m 5.04458,25.546695 A 27.949895,28.329212 0 0 1 104.23852,70.12935 27.949895,28.329212 0 0 1 76.288665,98.458761 27.949895,28.329212 0 0 1 48.338815,70.12935 27.949895,28.329212 0 0 1 76.288665,41.800252 Z" /><path
         id="path4"
         style="fill:#51b8c9;fill-opacity:1;stroke:none;stroke-width:0.538302;stroke-linejoin:round;paint-order:stroke fill markers"
         d="m 98.100861,62.249739 c -1.026798,3.148138 -1.650553,7.057734 -13.603114,10.168482 -4.043214,1.052279 -7.033665,4.216607 -7.033783,8.163166 -1.43e-4,4.606675 3.962464,8.34122 8.850713,8.341327 3.048224,3.1e-5 5.869508,-1.603199 7.716151,-3.869258 4.434813,-5.442064 6.282022,-11.336592 4.070033,-22.803717 z"
         sodipodi:nodetypes="csscsc" /><circle
         style="fill:#51b8c9;fill-opacity:1;stroke:none;stroke-width:0.419763;stroke-linejoin:round;paint-order:stroke fill markers"
         id="path6"
         cx="76.460258"
         cy="30.009909"
         r="4.8107619" /><circle
         style="fill:#51b8c9;fill-opacity:1;stroke:none;stroke-width:0.419763;stroke-linejoin:round;paint-order:stroke fill markers"
         id="circle6"
         cx="117.15408"
         cy="73.633018"
         r="4.8107619" /><circle
         style="fill:#51b8c9;fill-opacity:1;stroke:none;stroke-width:0.419763;stroke-linejoin:round;paint-order:stroke fill markers"
         id="circle7"
         cx="144.75681"
         cy="111.88252"
         r="4.8107619" /><path
         style="baseline-shift:baseline;display:inline;overflow:visible;vector-effect:none;fill:#51b8c9;fill-rule:evenodd;enable-background:accumulate;stop-color:#000000;stop-opacity:1;opacity:1"
         d="m 80.824219,29.111328 v 1.798828 c 17.836067,1e-6 35.429691,17.196691 35.429691,38.470703 h 1.79882 c 0,-22.261211 -18.245836,-40.26953 -37.228511,-40.269531 z"
         id="path7" /><g
         id="path8"
         style="opacity:1"><path
           style="baseline-shift:baseline;display:inline;overflow:visible;vector-effect:none;fill:#51b8c9;fill-rule:evenodd;enable-background:accumulate;stop-color:#000000;stop-opacity:1"
           d="m 116.25391,77.830078 c 0,9.993578 0.67294,18.609504 3.15234,24.875002 2.4794,6.26549 7.01269,10.18359 14.13086,10.18359 v -1.79883 c -6.49011,0 -10.14889,-3.20921 -12.45898,-9.04687 -2.3101,-5.837661 -3.0254,-14.302905 -3.0254,-24.212892 z"
           id="path10" /><g
           id="g2"><g
             id="path2"
             style="opacity:1"><path
               style="baseline-shift:baseline;display:inline;overflow:visible;vector-effect:none;fill:#51b8c9;fill-rule:evenodd;enable-background:accumulate;stop-color:#000000;stop-opacity:1"
               d="m 138.72662,111.98845 -7.77963,4.4969 v -8.9938 z"
               id="path3" /><path
               style="baseline-shift:baseline;display:inline;overflow:visible;vector-effect:none;fill:#51b8c9;fill-rule:evenodd;enable-background:accumulate;stop-color:#000000;stop-opacity:1"
               d="m 130.34766,106.45313 v 11.07226 l 9.57617,-5.53711 z m 1.19921,2.07812 5.98047,3.45703 -5.98047,3.45703 z"
               id="path5" /></g></g></g><path
         style="font-size:224px;line-height:1.25;font-family:Bahamas;-inkscape-font-specification:'Bahamas, Normal';letter-spacing:2.02px;word-spacing:3.21px;white-space:pre;fill:#0f7388;stroke-width:11.3386;stroke-linejoin:round;paint-order:stroke fill markers"
         d="m -12.402344,1071.2026 v -62.0703 c -0.291667,-5.4323 -1.877604,-10.3359 -4.757812,-14.7109 -2.880209,-4.41146 -6.945313,-7.875 -12.195313,-10.39063 -5.213541,-2.51562 -11.35677,-3.77343 -18.429687,-3.77343 -4.958333,0 -10.117188,1.14844 -15.476563,3.44531 -5.359375,2.29687 -9.953125,6.17969 -13.78125,11.64844 -3.791667,5.43231 -5.760417,12.50521 -5.90625,21.21871 0,7.8021 1.640625,14.5834 4.921875,20.3438 3.317709,5.7604 7.67448,10.1536 13.070313,13.1797 5.432291,3.026 11.15625,4.539 17.171875,4.539 10.354167,0 19.541667,-5.013 27.5625,-15.039 v 23.789 c -4.265625,2.6979 -7.364584,4.5755 -9.296875,5.6328 -1.895833,1.0573 -4.466146,2.0235 -7.710938,2.8985 -3.208333,0.875 -7.328125,1.3854 -12.359375,1.5312 -8.859375,0 -17.372395,-2.3333 -25.539062,-7 -8.166667,-4.6667 -14.802083,-11.3203 -19.90625,-19.9609 -5.104174,-8.6771 -7.656254,-18.6484 -7.656254,-29.9141 0,-10.1354 2.15104,-19.37758 6.453129,-27.72653 4.338541,-8.38541 10.773437,-15.03906 19.304687,-19.96093 8.53125,-4.95833 18.776042,-7.4375 30.734375,-7.4375 8.567709,0 16.260417,1.33073 23.078125,3.99218 6.854167,2.625 12.559896,6.23438 17.1171878,10.82813 4.5572916,4.55729 7.9843749,9.80729 10.2812499,15.75 2.3333333,5.90623 3.5,12.14065 3.5,18.70315 v 60.4843 z m 127.199684,48.1797 v -98.6015 c -0.54687,-10.0261 -2.625,-18.0834 -6.23437,-24.1719 -3.57292,-6.125 -7.89323,-10.44531 -12.960942,-12.96094 -5.067709,-2.55208 -10.244792,-3.82812 -15.53125,-3.82812 -5.25,0 -10.645833,1.3125 -16.1875,3.9375 -5.505209,2.625 -10.153646,6.76302 -13.945313,12.41406 -3.791667,5.6146 -5.6875,12.5599 -5.6875,20.8359 0,7.6198 1.494792,14.237 4.484375,19.8516 3.026042,5.6146 7.054688,9.9167 12.085938,12.9062 5.067708,2.9531 10.518229,4.4297 16.351562,4.4297 4.776042,0 10.153646,-0.7656 16.132813,-2.2968 5.979165,-1.5313 10.536457,-3.8282 13.671877,-6.8907 v 20.6172 c -7.619793,4.375 -17.99219,6.8359 -31.11719,7.3828 -10.244791,0 -19.268229,-2.6614 -27.070312,-7.9843 -7.802083,-5.3594 -13.835938,-12.1771 -18.101563,-20.4532 -4.140114,-8.2503 -6.275909,-17.5616 -6.125,-26.6875 0.170853,-10.3319 3.080729,-21.5833 7.929688,-29.96871 4.848958,-8.42188 11.302083,-14.85678 19.359375,-19.30469 8.09375,-4.48437 16.989583,-6.87239 26.6875,-7.16406 6.598958,0 13.10677,1.11198 19.523437,3.33593 6.416665,2.22396 12.304695,5.61459 17.664065,10.17188 5.35937,4.55729 9.71614,10.3724 13.07031,17.44531 3.39063,7.03643 5.30469,15.23954 5.74219,24.60934 v 102.375 z m 40.52,-155.69528 h 19.74218 v 64.74998 c 0.25521,5.1771 1.60417,9.7344 4.04688,13.6719 2.47917,3.9011 5.63281,6.9271 9.46094,9.0781 3.82812,2.1146 7.91145,3.263 12.25,3.4453 7.40104,0 13.5625,-2.6797 18.48437,-8.039 4.95833,-5.3594 7.67448,-11.4115 8.14844,-18.1563 v -64.74998 h 19.74219 v 63.82028 c 0,8.5313 -1.96875,16.3151 -5.90625,23.3516 -3.90105,7 -9.38803,12.5234 -16.46094,16.5703 -7.07292,4.0104 -15.07552,6.0156 -24.00781,6.0156 -12.72396,-0.5104 -23.4974,-4.7031 -32.32032,-12.5781 -8.78645,-7.875 -13.17968,-19.888 -13.17968,-36.0391 z m 199.82469,107.51558 v -62.0703 c -0.29167,-5.4323 -1.8776,-10.3359 -4.75781,-14.7109 -2.88021,-4.41146 -6.94532,-7.875 -12.19532,-10.39063 -5.21354,-2.51562 -11.35677,-3.77343 -18.42968,-3.77343 -4.95833,0 -10.11719,1.14844 -15.47657,3.44531 -5.35937,2.29687 -9.95312,6.17969 -13.78125,11.64844 -3.79167,5.43231 -5.76042,12.50521 -5.90625,21.21871 0,7.8021 1.64063,14.5834 4.92188,20.3438 3.31771,5.7604 7.67448,10.1536 13.07031,13.1797 5.43229,3.026 11.15625,4.539 17.17188,4.539 10.35417,0 19.54167,-5.013 27.5625,-15.039 v 23.789 c -4.26563,2.6979 -7.36459,4.5755 -9.29688,5.6328 -1.89583,1.0573 -4.46615,2.0235 -7.71094,2.8985 -3.20833,0.875 -7.32812,1.3854 -12.35937,1.5312 -8.85937,0 -17.37239,-2.3333 -25.53906,-7 -8.16667,-4.6667 -14.80208,-11.3203 -19.90625,-19.9609 -5.10417,-8.6771 -7.65625,-18.6484 -7.65625,-29.9141 0,-10.1354 2.15104,-19.37758 6.45312,-27.72653 4.33854,-8.38541 10.77344,-15.03906 19.30469,-19.96093 8.53125,-4.95833 18.77604,-7.4375 30.73437,-7.4375 8.56771,0 16.26042,1.33073 23.07813,3.99218 6.85417,2.625 12.5599,6.23438 17.11719,10.82813 4.55729,4.55729 7.98437,9.80729 10.28125,15.75 2.33333,5.90623 3.5,12.14065 3.5,18.70315 v 60.4843 z m 44.12936,-33.5781 V 936.34327 h 19.46875 v 27.34375 h 38.55469 v 18.8125 h -38.55469 v 58.89848 c 0,2.9895 1.20313,5.5781 3.60938,7.7656 2.40625,2.151 5.90625,3.2265 10.5,3.2265 h 24.44531 v 18.8125 h -24.88281 c -7.69271,0 -14.03646,-1.5312 -19.03125,-4.5937 -4.99479,-3.0625 -8.60417,-7.1276 -10.82813,-12.1953 -2.1875,-5.1042 -3.28125,-10.7006 -3.28125,-16.7891 z m 159.0278,33.5781 v -62.0703 c -0.29167,-5.4323 -1.8776,-10.3359 -4.75781,-14.7109 -2.88021,-4.41146 -6.94531,-7.875 -12.19531,-10.39063 -5.21354,-2.51562 -11.35677,-3.77343 -18.42969,-3.77343 -4.95833,0 -10.11719,1.14844 -15.47656,3.44531 -5.35937,2.29687 -9.95312,6.17969 -13.78125,11.64844 -3.79167,5.43231 -5.76042,12.50521 -5.90625,21.21871 0,7.8021 1.64062,14.5834 4.92187,20.3438 3.31771,5.7604 7.67449,10.1536 13.07032,13.1797 5.43229,3.026 11.15624,4.539 17.17187,4.539 10.35417,0 19.54167,-5.013 27.5625,-15.039 v 23.789 c -4.26563,2.6979 -7.36458,4.5755 -9.29687,5.6328 -1.89583,1.0573 -4.46615,2.0235 -7.71094,2.8985 -3.20833,0.875 -7.32813,1.3854 -12.35938,1.5312 -8.85937,0 -17.37239,-2.3333 -25.53906,-7 -8.16667,-4.6667 -14.80208,-11.3203 -19.90625,-19.9609 -5.10417,-8.6771 -7.65625,-18.6484 -7.65625,-29.9141 0,-10.1354 2.15104,-19.37758 6.45313,-27.72653 4.33854,-8.38541 10.77343,-15.03906 19.30468,-19.96093 8.53125,-4.95833 18.77605,-7.4375 30.73438,-7.4375 8.56771,0 16.26041,1.33073 23.07812,3.99218 6.85417,2.625 12.5599,6.23438 17.11719,10.82813 4.55729,4.55729 7.98438,9.80729 10.28125,15.75 2.33333,5.90623 3.5,12.14065 3.5,18.70315 v 60.4843 z"
         id="text9"
         transform="matrix(0.24619581,0,0,0.24619581,46.401462,-93.770358)"
         aria-label="aquata"
         sodipodi:nodetypes="ccccssccccscccccscsccscccsccccccsccsccsscccccacccssccccccccccccccsccccscccccssccccscccccscsccscccsccsccccccscsccsscsccccssccccscccccscsccscccscc" /></g></g></svg>
